<svg id="Layer_1" data-name="Layer 1" xmlns="http://www.w3.org/2000/svg" viewBox="0 0 250 250"><defs><style>.cls-1{fill:none;}.cls-2{fill:#231f20;}</style></defs><path class="cls-1" d="M83.57,119.5H119.5v-40a139.25,139.25,0,0,1-29.44-4.21A177.77,177.77,0,0,0,83.57,119.5Z"/><path class="cls-1" d="M90.06,174.76a139.25,139.25,0,0,1,29.44-4.21V130.5H83.57A177.77,177.77,0,0,0,90.06,174.76Z"/><path class="cls-1" d="M180,56a87.45,87.45,0,0,0-22.12-12.87,103.74,103.74,0,0,1,9,18.53A100.1,100.1,0,0,0,180,56Z"/><path class="cls-1" d="M96.71,192.61c4,8.37,8.6,14.91,13.53,19.33A90.91,90.91,0,0,0,119.5,213V181.56a129.47,129.47,0,0,0-25.94,3.65C94.54,187.77,95.59,190.25,96.71,192.61Z"/><path class="cls-1" d="M96.71,57.39c-1.12,2.36-2.17,4.84-3.15,7.4a129.47,129.47,0,0,0,25.94,3.65V36.93A88,88,0,0,0,110.32,38C105.36,42.41,100.71,49,96.71,57.39Z"/><path class="cls-1" d="M70,194a87.45,87.45,0,0,0,22.12,12.87,103.74,103.74,0,0,1-9-18.53A100.1,100.1,0,0,0,70,194Z"/><path class="cls-1" d="M92.13,43.13A88.16,88.16,0,0,0,70,56a99.63,99.63,0,0,0,13,5.64A103.74,103.74,0,0,1,92.13,43.13Z"/><path class="cls-1" d="M72.66,130.5H36.93A87.77,87.77,0,0,0,50.1,171.59a89.08,89.08,0,0,0,11.4,14.65,107.38,107.38,0,0,1,18.12-8.31A188.43,188.43,0,0,1,72.66,130.5Z"/><path class="cls-1" d="M79.62,72.07a108,108,0,0,1-18.14-8.32A87.76,87.76,0,0,0,39.09,105,89.54,89.54,0,0,0,37,119.5H72.66A188.43,188.43,0,0,1,79.62,72.07Z"/><path class="cls-1" d="M188.5,63.76a107.38,107.38,0,0,1-18.12,8.31,188.43,188.43,0,0,1,7,47.43h35.73A87.77,87.77,0,0,0,199.9,78.41,88.67,88.67,0,0,0,188.5,63.76Z"/><path class="cls-1" d="M170.38,177.93a108,108,0,0,1,18.14,8.32A87.76,87.76,0,0,0,210.91,145,89.54,89.54,0,0,0,213,130.5H177.34A188.43,188.43,0,0,1,170.38,177.93Z"/><path class="cls-1" d="M153.29,57.39c-4-8.38-8.61-14.92-13.54-19.34A91.08,91.08,0,0,0,130.5,37V68.44a128.75,128.75,0,0,0,25.94-3.65C155.46,62.23,154.41,59.75,153.29,57.39Z"/><path class="cls-1" d="M157.87,206.87a89.83,89.83,0,0,0,13.72-7A87.85,87.85,0,0,0,180,194a98.9,98.9,0,0,0-13-5.64A103.74,103.74,0,0,1,157.87,206.87Z"/><path class="cls-1" d="M166.43,130.5H130.5v40.05a139.25,139.25,0,0,1,29.44,4.21A177.77,177.77,0,0,0,166.43,130.5Z"/><path class="cls-1" d="M159.94,75.24a139.25,139.25,0,0,1-29.44,4.21V119.5h35.93A177.77,177.77,0,0,0,159.94,75.24Z"/><path class="cls-1" d="M130.5,213.07a88.33,88.33,0,0,0,9.18-1.06c5-4.42,9.61-11,13.61-19.4,1.12-2.36,2.17-4.84,3.15-7.4a128.75,128.75,0,0,0-25.94-3.65Z"/><path class="cls-2" d="M214.33,69.43a106.41,106.41,0,0,0-11.85-15.64,105.28,105.28,0,0,0-133-18.12A105.92,105.92,0,0,0,47.5,53.78,105.36,105.36,0,0,0,35.67,180.57a106.41,106.41,0,0,0,11.85,15.64,104.41,104.41,0,0,0,53.61,31.25,106.14,106.14,0,0,0,24.07,2.79,104.49,104.49,0,0,0,55.37-15.92,106.61,106.61,0,0,0,14.08-10.46,103.13,103.13,0,0,0,7.85-7.65A105.36,105.36,0,0,0,214.33,69.43ZM78.41,50.1a89.83,89.83,0,0,1,13.72-7,103.74,103.74,0,0,0-9,18.53A99.63,99.63,0,0,1,70,56,89.29,89.29,0,0,1,78.41,50.1ZM39.09,105A87.76,87.76,0,0,1,61.48,63.75a108,108,0,0,0,18.14,8.32,188.43,188.43,0,0,0-7,47.43H37A89.54,89.54,0,0,1,39.09,105Zm11,66.61A87.77,87.77,0,0,1,36.93,130.5H72.66a188.43,188.43,0,0,0,7,47.43,107.38,107.38,0,0,0-18.12,8.31A89.08,89.08,0,0,1,50.1,171.59ZM70,194a100.1,100.1,0,0,1,13.07-5.66,103.74,103.74,0,0,0,9,18.53A87.45,87.45,0,0,1,70,194Zm49.49,19a90.91,90.91,0,0,1-9.26-1.09c-4.93-4.42-9.55-11-13.53-19.33-1.12-2.36-2.17-4.84-3.15-7.4a129.47,129.47,0,0,1,25.94-3.65Zm0-42.48a139.25,139.25,0,0,0-29.44,4.21,177.77,177.77,0,0,1-6.49-44.26H119.5Zm0-51.05H83.57a177.77,177.77,0,0,1,6.49-44.26,139.25,139.25,0,0,0,29.44,4.21Zm0-51.06a129.47,129.47,0,0,1-25.94-3.65c1-2.56,2-5,3.15-7.4,4-8.42,8.65-15,13.61-19.4a88,88,0,0,1,9.18-1.06ZM180,56a100.1,100.1,0,0,1-13.07,5.66,103.74,103.74,0,0,0-9-18.53A87.45,87.45,0,0,1,180,56ZM130.5,37a91.08,91.08,0,0,1,9.25,1.1c4.93,4.42,9.56,11,13.54,19.34,1.12,2.36,2.17,4.84,3.15,7.4a128.75,128.75,0,0,1-25.94,3.65Zm0,42.5a139.25,139.25,0,0,0,29.44-4.21,177.77,177.77,0,0,1,6.49,44.26H130.5Zm0,51.05h35.93a177.77,177.77,0,0,1-6.49,44.26,139.25,139.25,0,0,0-29.44-4.21Zm22.79,62.11c-4,8.42-8.65,15-13.61,19.4a88.33,88.33,0,0,1-9.18,1.06V181.56a128.75,128.75,0,0,1,25.94,3.65C155.46,187.77,154.41,190.25,153.29,192.61Zm18.3,7.29a89.83,89.83,0,0,1-13.72,7,103.74,103.74,0,0,0,9-18.53A98.9,98.9,0,0,1,180,194,87.85,87.85,0,0,1,171.59,199.9ZM210.91,145a87.76,87.76,0,0,1-22.39,41.23,108,108,0,0,0-18.14-8.32,188.43,188.43,0,0,0,7-47.43H213A89.54,89.54,0,0,1,210.91,145ZM177.34,119.5a188.43,188.43,0,0,0-7-47.43,107.38,107.38,0,0,0,18.12-8.31,88.67,88.67,0,0,1,11.4,14.65,87.77,87.77,0,0,1,13.17,41.09Z"/></svg>